<svg width="115" height="34" viewBox="0 0 115 34" fill="none" xmlns="http://www.w3.org/2000/svg">
<path d="M72.4069 9.6263L70.5241 6.45795L67.1563 8.03952L65.2735 4.87117L61.907 6.45404L60.0229 3.28569L56.6564 4.86986L54.7724 1.70152L51.4058 3.28178L49.5205 0.113434L46.1565 1.695L39.0167 24.631L47.6781 27.2452C47.9739 26.3154 48.5587 25.5042 49.3473 24.9297C50.1359 24.3552 51.0873 24.0473 52.063 24.0507C54.5976 24.0507 56.6525 26.0808 56.6525 28.5855L56.6512 28.6768C56.6721 29.0875 56.6238 29.5034 56.4973 29.9102L65.3061 32.5727L72.4069 9.62499" fill="#C4242B"/>
<path d="M46.4434 22.7365C46.2262 22.7009 46.0289 22.5885 45.8875 22.4199C45.7461 22.2512 45.6699 22.0373 45.6728 21.8173V10.5898C45.6725 10.4662 45.6967 10.3437 45.7441 10.2295C45.7916 10.1154 45.8612 10.0118 45.9491 9.92476C46.0369 9.83776 46.1412 9.7691 46.2558 9.72279C46.3705 9.67647 46.4932 9.65342 46.6168 9.65498H54.8271C55.0409 9.65498 55.2561 9.67584 55.4647 9.71104C56.3136 9.85316 57.085 10.2909 57.6424 10.9468C58.1997 11.6027 58.5072 12.4346 58.5105 13.2953V21.8173C58.5107 21.9415 58.4857 22.0644 58.4371 22.1787C58.3885 22.293 58.3172 22.3962 58.2275 22.4822C58.1187 22.5882 57.986 22.6667 57.8406 22.7109C57.6952 22.7551 57.5413 22.7639 57.3918 22.7365C57.1747 22.7009 56.9776 22.5885 56.8364 22.4198C56.6952 22.251 56.6193 22.0372 56.6225 21.8173V13.2953C56.6217 13.0609 56.5745 12.8291 56.4836 12.613C56.3928 12.3969 56.2601 12.201 56.0933 12.0364C55.9264 11.8718 55.7286 11.7419 55.5113 11.6541C55.294 11.5663 55.0615 11.5223 54.8271 11.5247H53.0382V21.8173C53.0373 21.9556 53.0059 22.0921 52.9463 22.217C52.8866 22.3419 52.8002 22.4522 52.6932 22.5399C52.5862 22.6276 52.4611 22.6907 52.327 22.7247C52.1928 22.7587 52.0528 22.7627 51.9169 22.7365C51.6999 22.7006 51.503 22.5881 51.3619 22.4195C51.2207 22.2508 51.1447 22.0372 51.1477 21.8173V11.5234H47.5621V21.8173C47.5625 21.9414 47.5378 22.0643 47.4894 22.1786C47.441 22.2929 47.3699 22.3962 47.2805 22.4822C47.1715 22.5886 47.0386 22.6673 46.893 22.7115C46.7473 22.7558 46.5931 22.7643 46.4434 22.7365V22.7365ZM60.0947 27.6285C59.8769 27.5934 59.679 27.4811 59.5372 27.312C59.3955 27.143 59.3193 26.9286 59.3228 26.708C59.3228 26.4537 59.4193 26.2164 59.5953 26.043C59.7754 25.8683 60.0172 25.7718 60.2681 25.7744C61.0634 25.7744 61.7545 25.2659 61.9826 24.5097L62.9579 21.2996L59.7661 10.7606C59.7296 10.6419 59.7169 10.5171 59.7288 10.3935C59.7407 10.2698 59.777 10.1497 59.8355 10.0402C59.8941 9.9306 59.9737 9.8337 60.0699 9.75506C60.1661 9.67642 60.2768 9.61759 60.3958 9.58196C60.6325 9.51754 60.8847 9.5454 61.1016 9.65989C61.3185 9.77437 61.4838 9.96696 61.5641 10.1987L63.9371 18.0609L66.3349 10.2039C66.4535 9.76059 66.9346 9.47896 67.4288 9.56501L67.4953 9.57935C68.0064 9.73712 68.288 10.2678 68.1329 10.7619L64.8472 21.5773L63.8093 25.0391C63.5407 25.8344 63.0792 26.4811 62.4768 26.9166C61.8249 27.3925 61.0608 27.6428 60.2681 27.6428C60.2099 27.6431 60.1518 27.6379 60.0947 27.6272V27.6285ZM2.23518 20.692H4.09707C5.1245 20.692 5.96157 19.8667 5.96157 18.8497V13.4505C5.96157 12.5547 5.31226 11.792 4.41912 11.6368C4.31275 11.6184 4.20503 11.6088 4.09707 11.6081L2.23257 11.6094L2.23518 20.6907V20.692ZM1.06954 22.6178C0.842984 22.5815 0.637101 22.4647 0.489599 22.289C0.342096 22.1132 0.262849 21.8902 0.266371 21.6608V4.89985C0.266371 4.63517 0.366767 4.39004 0.550609 4.20881C0.663234 4.09787 0.801045 4.01585 0.952264 3.96976C1.10348 3.92367 1.26361 3.91487 1.41897 3.94413C1.89096 4.02497 2.23257 4.42655 2.23257 4.90115V9.66801H4.09707C4.59741 9.6632 5.09376 9.75739 5.55755 9.94518C6.02133 10.133 6.4434 10.4106 6.79944 10.7622C7.15548 11.1137 7.43848 11.5323 7.63212 11.9936C7.82577 12.455 7.92625 12.9501 7.92777 13.4505L7.92647 18.8497C7.92647 20.9372 6.208 22.6335 4.09577 22.6335H1.25208C1.1909 22.635 1.12972 22.6302 1.06954 22.6191V22.6178ZM14.5982 11.5247C14.4922 11.5071 14.385 11.4983 14.2775 11.4986C13.2331 11.4986 12.413 12.307 12.413 13.3396V18.9631C12.4132 19.2068 12.4617 19.4481 12.5557 19.6729C12.6498 19.8977 12.7875 20.1017 12.9609 20.2729C13.1343 20.4441 13.34 20.5793 13.566 20.6705C13.792 20.7617 14.0338 20.8071 14.2775 20.8042C15.3049 20.8042 16.1407 19.9801 16.142 18.9631L16.1407 13.3396C16.1407 12.4426 15.4914 11.6812 14.5982 11.5247V11.5247ZM13.6034 22.6908C12.722 22.5416 11.9218 22.0854 11.3443 21.4029C10.7669 20.7205 10.4494 19.8558 10.4481 18.9618V13.3383C10.4481 12.3239 10.8445 11.3734 11.5668 10.6602C12.2887 9.94806 13.2634 9.55096 14.2775 9.55588C14.7779 9.55107 15.2744 9.6453 15.7383 9.83317C16.2021 10.021 16.6243 10.2988 16.9803 10.6505C17.3364 11.0022 17.6194 11.4209 17.8129 11.8824C18.0065 12.3439 18.1068 12.8392 18.1082 13.3396L18.1069 18.9631C18.1069 19.9736 17.7053 20.9241 16.9765 21.6425C16.2574 22.3518 15.2875 22.7487 14.2775 22.7469C14.0516 22.7481 13.826 22.7293 13.6034 22.6908V22.6908ZM24.7761 11.5247C24.6705 11.5071 24.5636 11.4984 24.4566 11.4986C23.4109 11.4986 22.5947 12.307 22.5947 13.3396V18.9631C22.5947 19.2067 22.643 19.4478 22.7368 19.6725C22.8307 19.8973 22.9681 20.1011 23.1413 20.2724C23.3145 20.4436 23.5199 20.5788 23.7457 20.6701C23.9715 20.7613 24.2131 20.8069 24.4566 20.8042C24.9495 20.8042 25.4123 20.6138 25.767 20.2696C26.1229 19.9202 26.3198 19.456 26.3198 18.9631V13.3383C26.3198 12.4426 25.6705 11.6825 24.7761 11.5247V11.5247ZM23.7825 22.6908C22.9016 22.5411 22.1018 22.085 21.5245 21.4029C20.9471 20.7208 20.6294 19.8567 20.6272 18.9631V13.3396C20.6272 11.2522 22.3444 9.55458 24.4566 9.55458C24.6783 9.55458 24.8999 9.57283 25.1164 9.61064C25.9999 9.75808 26.8027 10.2133 27.3828 10.8958C27.9629 11.5783 28.2828 12.4439 28.286 13.3396V18.9631C28.286 19.9762 27.8844 20.9241 27.1556 21.6425C26.4366 22.3518 25.4666 22.7487 24.4566 22.7469C24.2298 22.7469 24.0029 22.7286 23.7825 22.6908ZM31.6082 22.7312C31.3825 22.6941 31.1776 22.5773 31.0307 22.4019C30.8838 22.2265 30.8046 22.0043 30.8077 21.7755V4.89985C30.8059 4.77091 30.8301 4.64293 30.879 4.52358C30.9278 4.40423 31.0002 4.29597 31.0919 4.20527C31.1836 4.11458 31.2926 4.04331 31.4125 3.99575C31.5323 3.94819 31.6605 3.92531 31.7895 3.92848C31.918 3.92711 32.0455 3.9512 32.1646 3.99939C32.2837 4.04757 32.3921 4.11888 32.4835 4.2092C32.5749 4.29952 32.6475 4.40706 32.6972 4.5256C32.7468 4.64414 32.7724 4.77134 32.7726 4.89985V14.8873L37.3021 9.87663C37.4167 9.75503 37.5599 9.6641 37.7186 9.61217C37.8774 9.56024 38.0466 9.54895 38.2109 9.57935C38.3921 9.61064 38.5629 9.69018 38.7051 9.80753C39.1079 10.1726 39.1353 10.7854 38.7729 11.174L35.3633 14.929L38.9059 21.3205C38.9684 21.4285 39.0083 21.5482 39.0231 21.6721C39.0379 21.7961 39.0273 21.9218 38.9919 22.0415C38.9548 22.1655 38.893 22.2806 38.81 22.3799C38.7271 22.4792 38.6248 22.5606 38.5095 22.6191C38.311 22.7288 38.0807 22.7666 37.8576 22.726C37.7162 22.7036 37.5815 22.6505 37.463 22.5702C37.3445 22.49 37.2451 22.3848 37.1717 22.2619L33.9851 16.4819L32.7726 17.8027V21.7755C32.7726 22.0389 32.6682 22.284 32.4792 22.4692C32.3656 22.5794 32.2272 22.6608 32.0756 22.7064C31.9241 22.752 31.7638 22.7605 31.6082 22.7312ZM74.9846 22.7208C74.4544 22.634 73.95 22.4304 73.5081 22.1249C73.0661 21.8194 72.6976 21.4195 72.429 20.9541C72.3025 20.7283 72.2706 20.4615 72.3404 20.2122C72.3732 20.0895 72.4299 19.9745 72.5074 19.8738C72.5848 19.7731 72.6814 19.6887 72.7915 19.6255C72.9871 19.516 73.2218 19.4768 73.45 19.516C73.5913 19.5389 73.7258 19.5926 73.8441 19.6733C73.9624 19.7539 74.0615 19.8596 74.1345 19.9827C74.3939 20.4195 74.7981 20.6946 75.3014 20.7833C75.849 20.8694 76.3484 20.7207 76.7565 20.3713C77.1346 20.0232 77.3328 19.5264 77.2833 19.0466C77.2719 18.7955 77.2013 18.5507 77.0771 18.3323C76.9529 18.1138 76.7787 17.9278 76.5688 17.7897L73.9206 15.9317C73.4908 15.6332 73.1327 15.2428 72.8722 14.7889C72.6118 14.3349 72.4555 13.8288 72.4147 13.307C72.3799 12.7824 72.4657 12.2568 72.6655 11.7704C72.8653 11.2841 73.1738 10.8499 73.5673 10.5012C73.9575 10.1447 74.4216 9.87876 74.9265 9.72234C75.4313 9.56593 75.9645 9.52289 76.4879 9.5963H76.4892C77.6053 9.79188 78.5167 10.4177 79.0317 11.3213C79.1576 11.5444 79.1904 11.8082 79.123 12.0554C79.09 12.179 79.0329 12.2949 78.955 12.3965C78.8772 12.4981 78.7801 12.5833 78.6692 12.6473C78.4694 12.7584 78.2371 12.7967 78.0121 12.7555C77.8706 12.7332 77.7358 12.6798 77.6172 12.5994C77.4987 12.5189 77.3993 12.4133 77.3263 12.29C77.102 11.8989 76.6978 11.6251 76.2102 11.5403C75.9736 11.497 75.7301 11.5093 75.499 11.5762C75.268 11.6432 75.0557 11.7631 74.879 11.9263C74.54 12.2366 74.3535 12.7034 74.3809 13.178C74.4057 13.6356 74.6677 14.0828 75.0628 14.3436L77.7122 16.1742C78.1605 16.483 78.532 16.8905 78.7981 17.3655C79.0641 17.8404 79.2176 18.37 79.2469 18.9136C79.29 19.4537 79.2055 19.9963 79.0003 20.4978C78.7951 20.9992 78.4749 21.4454 78.0656 21.8003C77.6634 22.167 77.1854 22.4405 76.6655 22.6014C76.1456 22.7623 75.5966 22.8067 75.0576 22.7312L74.9859 22.7208H74.9846ZM82.5938 22.7482C82.367 22.7099 82.1609 22.5927 82.0118 22.4175C81.8628 22.2422 81.7803 22.02 81.7789 21.7899V4.91549C81.7789 4.65212 81.8832 4.407 82.0736 4.22055C82.1874 4.1111 82.3257 4.03036 82.4769 3.98501C82.6281 3.93966 82.788 3.93101 82.9433 3.95978C83.1692 3.99661 83.3745 4.11335 83.5216 4.28875C83.6688 4.46415 83.7481 4.68656 83.7451 4.91549V9.68105H85.6096C85.8365 9.68105 86.0634 9.70061 86.2824 9.73973C87.1635 9.88813 87.9637 10.3436 88.5412 11.0253C89.1187 11.7071 89.4363 12.5713 89.4377 13.4648L89.439 21.7899C89.4403 21.9332 89.4097 22.075 89.3495 22.205C89.2892 22.335 89.2007 22.45 89.0905 22.5416C88.9803 22.6332 88.8511 22.6992 88.7122 22.7347C88.5734 22.7702 88.4284 22.7744 88.2877 22.7469C88.0605 22.7093 87.854 22.5924 87.7048 22.4169C87.5556 22.2415 87.4734 22.0189 87.4728 21.7886V13.4648C87.4732 13.221 87.425 12.9795 87.3312 12.7544C87.2373 12.5293 87.0996 12.3252 86.9261 12.1539C86.7526 11.9825 86.5467 11.8474 86.3205 11.7564C86.0942 11.6654 85.8521 11.6203 85.6083 11.6238H83.7451V21.7899C83.7458 21.9187 83.7208 22.0463 83.6715 22.1654C83.6222 22.2844 83.5497 22.3923 83.4581 22.4829C83.3665 22.5735 83.2578 22.6449 83.1383 22.693C83.0187 22.741 82.8908 22.7646 82.762 22.7625C82.7053 22.7629 82.6486 22.7586 82.5925 22.7495L82.5938 22.7482ZM96.1056 11.539C95.811 11.4856 95.508 11.5039 95.222 11.5924C94.936 11.6809 94.6756 11.837 94.4627 12.0475C94.1133 12.3931 93.9203 12.8559 93.9203 13.3514V18.9788C93.9203 19.8732 94.5644 20.6347 95.4498 20.7885C95.7443 20.8424 96.0475 20.8246 96.3337 20.7365C96.6198 20.6485 96.8806 20.4928 97.0939 20.2826C97.4511 19.9332 97.6467 19.4716 97.6467 18.9775V13.3514C97.6467 12.4556 96.9987 11.6929 96.1056 11.5377V11.539ZM95.1107 22.7026C94.2298 22.5539 93.4298 22.0984 92.8523 21.4167C92.2748 20.7349 91.9571 19.8709 91.9554 18.9775V13.3514C91.9541 11.2652 93.6726 9.56762 95.7848 9.56762C96.0052 9.56762 96.2281 9.58457 96.4446 9.62368C97.3276 9.77135 98.13 10.2265 98.7098 10.9087C99.2896 11.5909 99.6095 12.4561 99.6129 13.3514V18.9775C99.6137 19.4769 99.514 19.9713 99.3198 20.4314C99.1256 20.8915 98.8409 21.3078 98.4825 21.6556C98.0457 22.0877 97.5113 22.4084 96.9244 22.5907C96.3376 22.7729 95.7155 22.8113 95.1107 22.7026V22.7026ZM114.728 10.7619C114.76 10.6428 114.767 10.5185 114.75 10.3965C114.732 10.2745 114.691 10.1572 114.628 10.0513C114.483 9.82389 114.253 9.6635 113.989 9.60543C113.746 9.55873 113.494 9.60633 113.285 9.73856C113.076 9.87079 112.925 10.0777 112.863 10.3173C112.24 12.808 111.608 15.2966 110.969 17.7832L110.951 17.8562L110.934 17.7832C110.126 14.5783 109.048 10.3643 109.036 10.3199C108.997 10.138 108.904 9.97207 108.769 9.84405C108.634 9.71604 108.463 9.63193 108.28 9.60282C108.039 9.5622 107.792 9.61298 107.587 9.74517C107.382 9.87737 107.234 10.0814 107.171 10.3173C107.158 10.3564 106.103 14.5783 105.276 17.7832L105.257 17.8562L105.239 17.7832C104.433 14.5783 103.352 10.3577 103.342 10.3173C103.279 10.072 103.122 9.8613 102.905 9.73056C102.689 9.59982 102.429 9.55956 102.183 9.61847C101.938 9.6767 101.726 9.82977 101.593 10.0441C101.461 10.2585 101.419 10.5166 101.476 10.7619L104.325 22.0167C104.381 22.222 104.502 22.4037 104.67 22.5344C104.838 22.6651 105.043 22.7378 105.256 22.7417C105.472 22.7488 105.683 22.68 105.854 22.5473C106.024 22.4146 106.142 22.2264 106.188 22.0154C106.199 21.9724 107.28 17.7519 108.087 14.5444L108.104 14.474L108.124 14.5444C108.959 17.7818 110.016 22.0154 110.018 22.018C110.074 22.2236 110.195 22.4054 110.363 22.5361C110.531 22.6668 110.737 22.7394 110.95 22.743C111.166 22.7491 111.377 22.6796 111.547 22.5465C111.717 22.4134 111.835 22.2251 111.881 22.0141L114.728 10.7619" fill="white"/>
</svg>
